<svg width="402" height="457" viewBox="0 0 402 457" fill="none" xmlns="http://www.w3.org/2000/svg">
<rect width="402" height="457" fill="#1E1E1E"/>
<line x1="10.282" y1="186.713" x2="157.282" y2="397.713" stroke="white" stroke-width="8"/>
<line x1="32.0903" y1="187.629" x2="156.09" y2="376.629" stroke="white" stroke-width="5"/>
<line x1="157.074" y1="397.8" x2="366.074" y2="24.8003" stroke="white" stroke-width="9"/>
<line x1="13" y1="186" x2="36" y2="186" stroke="white" stroke-width="6"/>
<line x1="10.282" y1="186.713" x2="157.282" y2="397.713" stroke="white" stroke-width="8"/>
<line x1="32.0903" y1="187.629" x2="156.09" y2="376.629" stroke="white" stroke-width="5"/>
<line x1="157.074" y1="397.8" x2="366.074" y2="24.8003" stroke="white" stroke-width="9"/>
<line x1="13" y1="186" x2="36" y2="186" stroke="white" stroke-width="6"/>
<path d="M401 2H356.724L359 5.5L360.5 8L361.5 12L362.922 16.7761L362 23L359 31.5C361.834 26.7716 362.037 30.0746 362.922 35L374.877 16.7761L380.5 11.5L387 8L393.5 4.5L401 2Z" fill="white" stroke="white" stroke-width="3"/>
<path d="M158.143 405L153 397H162L158.143 405Z" fill="white" stroke="white"/>
<path d="M2 183.5H13L13.5 197.5L2 183.5Z" fill="white" stroke="white"/>
<path d="M159.617 386.5L154.117 377.266L157 374.5L162 381.734L159.617 386.5Z" fill="white" stroke="white"/>
<line y1="-4" x2="209.564" y2="-4" transform="matrix(0.573119 0.819472 -0.821541 0.570149 34.0852 279.199)" stroke="white" stroke-width="8"/>
<line y1="-2.5" x2="184.193" y2="-2.5" transform="matrix(0.55004 0.835138 -0.83708 0.54708 52.8772 279.199)" stroke="white" stroke-width="5"/>
<line y1="-4.5" x2="348.314" y2="-4.5" transform="matrix(0.490253 -0.87158 0.873189 0.487382 159.91 450.931)" stroke="white" stroke-width="9"/>
<line x1="39" y1="276" x2="58" y2="276" stroke="white" stroke-width="6"/>
<line y1="-4" x2="209.564" y2="-4" transform="matrix(0.573119 0.819472 -0.821541 0.570149 34.0852 279.199)" stroke="white" stroke-width="8"/>
<line y1="-2.5" x2="184.193" y2="-2.5" transform="matrix(0.55004 0.835138 -0.83708 0.54708 52.8772 279.199)" stroke="white" stroke-width="5"/>
<line y1="-4.5" x2="348.314" y2="-4.5" transform="matrix(0.490253 -0.87158 0.873189 0.487382 159.91 450.931)" stroke="white" stroke-width="9"/>
<line x1="39" y1="276" x2="58" y2="276" stroke="white" stroke-width="6"/>
<path d="M356 127H319.595L321.467 129.864L322.7 131.909L323.522 135.182L324.692 139.09L323.933 144.182L321.467 151.136C323.797 147.268 323.964 149.97 324.692 154L334.521 139.09L339.144 134.773L344.489 131.909L349.833 129.045L356 127Z" fill="white" stroke="white" stroke-width="3"/>
<path d="M157.571 455L153 448H161L157.571 455Z" fill="white" stroke="white"/>
<path d="M30 274H38.6087L39 286L30 274Z" fill="white" stroke="white"/>
<path d="M158.186 439L154 431.305L156.194 429L160 435.028L158.186 439Z" fill="white" stroke="white"/>
</svg>
